<svg xmlns="http://www.w3.org/2000/svg" version="1.1" xmlns:xlink="http://www.w3.org/1999/xlink" xmlns:svgjs="http://svgjs.dev/svgjs" width="1000" height="1000" viewBox="0 0 1000 1000"><rect width="1000" height="1000" fill="#ffffff"></rect><g transform="matrix(0.7,0,0,0.7,149.57575757575762,282.1265587044535)"><svg viewBox="0 0 396 247" data-background-color="#7100ab" preserveAspectRatio="xMidYMid meet" height="623" width="1000" xmlns="http://www.w3.org/2000/svg" xmlns:xlink="http://www.w3.org/1999/xlink"><g id="tight-bounds" transform="matrix(1,0,0,1,0.2400000000000091,-0.09999999999999432)"><svg viewBox="0 0 395.52 247.2" height="247.2" width="395.52"><g><svg></svg></g><g><svg viewBox="0 0 395.52 247.2" height="247.2" width="395.52"><g transform="matrix(1,0,0,1,75.54432,113.50564673739282)"><svg viewBox="0 0 244.43135999999998 20.188706525214357" height="20.188706525214357" width="244.43135999999998"><g><svg viewBox="0 0 244.43135999999998 20.188706525214357" height="20.188706525214357" width="244.43135999999998"><g><svg viewBox="0 0 244.43135999999998 20.188706525214357" height="20.188706525214357" width="244.43135999999998"><g><svg viewBox="0 0 244.43135999999998 20.188706525214357" height="20.188706525214357" width="244.43135999999998"><g id="textblocktransform"><svg viewBox="0 0 244.43135999999998 20.188706525214357" height="20.188706525214357" width="244.43135999999998" id="textblock"><g><svg viewBox="0 0 244.43135999999998 20.188706525214357" height="20.188706525214357" width="244.43135999999998"><g transform="matrix(1,0,0,1,0,0)"><svg width="244.43135999999998" viewBox="0.7599999904632568 -41.11000061035156 503.94000244140625 41.619998931884766" height="20.188706525214357" data-palette-color="#bb84e8"><path d="M0.76 0L18.41-22.8 3.64-22.8 3.64-28.81 31.81-28.81 14.04-6.01 30.83-6.01 30.83 0 0.76 0ZM41.62-32.74L41.62-32.74Q40.55-32.74 39.68-33.04 38.82-33.35 38.21-33.87 37.6-34.4 37.27-35.1 36.94-35.79 36.94-36.57L36.94-36.57Q36.94-37.38 37.27-38.07 37.6-38.77 38.21-39.28 38.82-39.79 39.68-40.1 40.55-40.41 41.62-40.41L41.62-40.41Q42.72-40.41 43.59-40.1 44.46-39.79 45.07-39.28 45.68-38.77 46.01-38.07 46.34-37.38 46.34-36.57L46.34-36.57Q46.34-35.79 46.01-35.1 45.68-34.4 45.07-33.87 44.46-33.35 43.59-33.04 42.72-32.74 41.62-32.74ZM38.01 0L38.01-28.81 45.24-28.81 45.24 0 38.01 0ZM52.27-14.28L52.27-14.28Q52.27-17.72 53.56-20.5 54.85-23.27 57.14-25.23 59.42-27.2 62.56-28.26 65.69-29.32 69.36-29.32L69.36-29.32Q70.92-29.32 72.44-29.13 73.97-28.93 75.37-28.59 76.78-28.25 78.01-27.77 79.24-27.29 80.2-26.73L80.2-26.73 80.2-40.5 87.42-40.5 87.42 0 80.2 0 80.2-2.71Q79.24-2.05 77.95-1.46 76.66-0.88 75.17-0.44 73.68 0 72.08 0.26 70.48 0.51 68.92 0.51L68.92 0.51Q65.25 0.51 62.19-0.56 59.13-1.64 56.93-3.59 54.73-5.54 53.5-8.26 52.27-10.99 52.27-14.28ZM59.86-14.28L59.86-14.28Q59.86-12.55 60.55-11.01 61.25-9.47 62.56-8.31 63.86-7.15 65.71-6.48 67.55-5.81 69.84-5.81L69.84-5.81Q71.31-5.81 72.77-6.09 74.24-6.37 75.59-6.88 76.95-7.4 78.13-8.13 79.32-8.86 80.2-9.77L80.2-9.77 80.2-19.75Q79.1-20.63 77.88-21.24 76.66-21.85 75.39-22.24 74.12-22.63 72.82-22.81 71.53-23 70.31-23L70.31-23Q67.82-23 65.88-22.33 63.94-21.66 62.6-20.48 61.27-19.31 60.57-17.72 59.86-16.14 59.86-14.28ZM96.26 0L96.26-40.48 103.48-40.48 103.48-26.61Q105.75-27.86 108.55-28.59 111.35-29.32 114.42-29.32L114.42-29.32Q117.99-29.32 120.83-28.27 123.67-27.22 125.65-25.26 127.63-23.29 128.69-20.48 129.75-17.68 129.75-14.16L129.75-14.16 129.75 0 122.55 0 122.55-13.87Q122.55-15.92 121.89-17.61 121.23-19.31 119.96-20.53 118.69-21.75 116.87-22.42 115.06-23.1 112.76-23.1L112.76-23.1Q110-23.1 107.63-22.22 105.27-21.34 103.48-20L103.48-20 103.48 0 96.26 0ZM137.83-13.75L137.83-28.83 145.03-28.83 145.03-14.77Q145.03-12.77 145.47-11.12 145.91-9.47 146.97-8.3 148.04-7.13 149.81-6.48 151.58-5.83 154.21-5.83L154.21-5.83Q155.46-5.83 156.74-6.1 158.02-6.37 159.19-6.85 160.37-7.32 161.38-7.98 162.39-8.64 163.12-9.42L163.12-9.42 163.12-28.83 170.35-28.83 170.35 0 163.12 0 163.12-2.47Q160.46-0.88 157.78-0.2 155.09 0.49 152.68 0.49L152.68 0.49Q148.72 0.49 145.9-0.46 143.08-1.42 141.29-3.23 139.49-5.05 138.66-7.7 137.83-10.35 137.83-13.75L137.83-13.75ZM177.55-3.37L180.68-8.84Q183.61-7.08 187.12-6.25 190.64-5.42 194.32-5.42L194.32-5.42Q196.81-5.42 198.47-5.76 200.13-6.1 201.13-6.64 202.14-7.18 202.55-7.86 202.97-8.54 202.97-9.25L202.97-9.25Q202.97-10.28 202.07-11.01 201.18-11.74 199.13-11.74L199.13-11.74Q198.18-11.74 197.08-11.62 195.98-11.5 194.78-11.36 193.57-11.23 192.26-11.11 190.95-10.99 189.61-10.99L189.61-10.99Q186.68-10.99 184.62-11.62 182.56-12.26 181.26-13.35 179.97-14.45 179.38-15.95 178.8-17.46 178.8-19.19L178.8-19.19Q178.8-21.39 179.82-23.24 180.85-25.1 182.75-26.45 184.66-27.81 187.35-28.56 190.05-29.32 193.37-29.32L193.37-29.32Q195.1-29.32 197-29.11 198.89-28.91 200.72-28.56 202.55-28.22 204.24-27.77 205.92-27.32 207.21-26.81L207.21-26.81 204.94-21.19Q202.18-22.22 199.44-22.81 196.69-23.41 193.79-23.41L193.79-23.41Q191.76-23.41 190.36-23.11 188.95-22.8 188.07-22.3 187.19-21.8 186.79-21.15 186.39-20.51 186.39-19.8L186.39-19.8Q186.39-19.29 186.6-18.87 186.8-18.46 187.28-18.15 187.76-17.85 188.53-17.69 189.29-17.53 190.42-17.53L190.42-17.53Q191.44-17.53 192.59-17.65 193.74-17.77 194.98-17.91 196.23-18.04 197.56-18.16 198.89-18.29 200.28-18.29L200.28-18.29Q202.87-18.29 204.81-17.68 206.75-17.07 208.02-15.97 209.29-14.87 209.92-13.38 210.56-11.89 210.56-10.13L210.56-10.13Q210.56-7.86 209.51-5.91 208.46-3.96 206.38-2.53 204.31-1.1 201.22-0.29 198.13 0.51 194.08 0.51L194.08 0.51Q191.59 0.51 189.27 0.21 186.95-0.1 184.85-0.62 182.75-1.15 180.91-1.86 179.06-2.56 177.55-3.37L177.55-3.37ZM234.55 0L234.55-38.16 254.67-38.16Q259.06-38.16 262.29-37.21 265.51-36.25 267.63-34.46 269.76-32.67 270.8-30.08 271.83-27.49 271.83-24.24L271.83-24.24Q271.83-21.19 270.81-18.6 269.78-16.02 267.67-14.12 265.56-12.23 262.34-11.17 259.11-10.11 254.72-10.11L254.72-10.11 242.29-10.13 242.29 0 234.55 0ZM242.29-16.82L254.87-16.82Q257.06-16.82 258.71-17.35 260.36-17.87 261.47-18.84 262.58-19.8 263.13-21.18 263.68-22.56 263.68-24.24L263.68-24.24Q263.68-27.64 261.47-29.53 259.26-31.42 254.87-31.42L254.87-31.42 242.29-31.42 242.29-16.82ZM279.37 0L279.37-28.81 286.6-28.81 286.6-24.66Q288.99-26.44 291.65-27.73 294.32-29.03 296.95-29.71L296.95-29.71 299.08-23.1Q294.9-22.68 291.74-21.23 288.58-19.78 286.6-17.14L286.6-17.14 286.6 0 279.37 0ZM302.71-14.4L302.71-14.4Q302.71-17.5 303.97-20.21 305.23-22.92 307.56-24.95 309.89-26.98 313.2-28.15 316.51-29.32 320.63-29.32L320.63-29.32Q324.76-29.32 328.07-28.15 331.37-26.98 333.71-24.95 336.04-22.92 337.29-20.21 338.55-17.5 338.55-14.4L338.55-14.4Q338.55-11.3 337.29-8.59 336.04-5.88 333.71-3.86 331.37-1.83 328.07-0.66 324.76 0.51 320.63 0.51L320.63 0.51Q316.51 0.51 313.2-0.66 309.89-1.83 307.56-3.86 305.23-5.88 303.97-8.59 302.71-11.3 302.71-14.4ZM310.3-14.4L310.3-14.4Q310.3-12.67 311-11.12 311.7-9.57 313.03-8.39 314.36-7.2 316.27-6.51 318.19-5.81 320.63-5.81L320.63-5.81Q323.07-5.81 324.99-6.51 326.91-7.2 328.24-8.39 329.57-9.57 330.26-11.12 330.96-12.67 330.96-14.4L330.96-14.4Q330.96-16.14 330.26-17.7 329.57-19.26 328.24-20.45 326.91-21.63 324.99-22.33 323.07-23.02 320.63-23.02L320.63-23.02Q318.19-23.02 316.27-22.33 314.36-21.63 313.03-20.45 311.7-19.26 311-17.7 310.3-16.14 310.3-14.4ZM350.19 0L350.19-23.39 343.24-23.39 343.24-28.81 350.19-28.81 350.19-37.77 357.42-37.77 357.42-28.81 364.38-28.81 364.38-23.39 357.42-23.39 357.42 0 350.19 0ZM373.95 0L373.95-23.39 369.02-23.39 369.02-28.81 373.95-28.81Q373.95-31.74 374.78-34.02 375.61-36.3 377.18-37.88 378.76-39.45 381.01-40.28 383.27-41.11 386.11-41.11L386.11-41.11Q388.08-41.11 389.99-40.73 391.89-40.36 393.36-39.65L393.36-39.65 390.79-33.57Q390.21-33.91 389.14-34.2 388.08-34.5 386.81-34.5L386.81-34.5Q384.32-34.5 382.8-33.09 381.27-31.69 381.17-28.81L381.17-28.81 390.28-28.81 390.28-23.39 381.17-23.39 381.17 0 373.95 0ZM394.11-14.4L394.11-14.4Q394.11-17.5 395.37-20.21 396.63-22.92 398.96-24.95 401.29-26.98 404.6-28.15 407.9-29.32 412.03-29.32L412.03-29.32Q416.16-29.32 419.46-28.15 422.77-26.98 425.1-24.95 427.44-22.92 428.69-20.21 429.95-17.5 429.95-14.4L429.95-14.4Q429.95-11.3 428.69-8.59 427.44-5.88 425.1-3.86 422.77-1.83 419.46-0.66 416.16 0.51 412.03 0.51L412.03 0.51Q407.9 0.51 404.6-0.66 401.29-1.83 398.96-3.86 396.63-5.88 395.37-8.59 394.11-11.3 394.11-14.4ZM401.7-14.4L401.7-14.4Q401.7-12.67 402.4-11.12 403.1-9.57 404.43-8.39 405.76-7.2 407.67-6.51 409.59-5.81 412.03-5.81L412.03-5.81Q414.47-5.81 416.39-6.51 418.3-7.2 419.64-8.39 420.97-9.57 421.66-11.12 422.36-12.67 422.36-14.4L422.36-14.4Q422.36-16.14 421.66-17.7 420.97-19.26 419.64-20.45 418.3-21.63 416.39-22.33 414.47-23.02 412.03-23.02L412.03-23.02Q409.59-23.02 407.67-22.33 405.76-21.63 404.43-20.45 403.1-19.26 402.4-17.7 401.7-16.14 401.7-14.4ZM437.44 0L437.44-40.5 444.67-40.5 444.67 0 437.44 0ZM457.73-32.74L457.73-32.74Q456.65-32.74 455.79-33.04 454.92-33.35 454.31-33.87 453.7-34.4 453.37-35.1 453.04-35.79 453.04-36.57L453.04-36.57Q453.04-37.38 453.37-38.07 453.7-38.77 454.31-39.28 454.92-39.79 455.79-40.1 456.65-40.41 457.73-40.41L457.73-40.41Q458.83-40.41 459.69-40.1 460.56-39.79 461.17-39.28 461.78-38.77 462.11-38.07 462.44-37.38 462.44-36.57L462.44-36.57Q462.44-35.79 462.11-35.1 461.78-34.4 461.17-33.87 460.56-33.35 459.69-33.04 458.83-32.74 457.73-32.74ZM454.12 0L454.12-28.81 461.34-28.81 461.34 0 454.12 0ZM468.86-14.4L468.86-14.4Q468.86-17.5 470.12-20.21 471.37-22.92 473.71-24.95 476.04-26.98 479.34-28.15 482.65-29.32 486.78-29.32L486.78-29.32Q490.9-29.32 494.21-28.15 497.52-26.98 499.85-24.95 502.18-22.92 503.44-20.21 504.7-17.5 504.7-14.4L504.7-14.4Q504.7-11.3 503.44-8.59 502.18-5.88 499.85-3.86 497.52-1.83 494.21-0.66 490.9 0.51 486.78 0.51L486.78 0.51Q482.65 0.51 479.34-0.66 476.04-1.83 473.71-3.86 471.37-5.88 470.12-8.59 468.86-11.3 468.86-14.4ZM476.45-14.4L476.45-14.4Q476.45-12.67 477.15-11.12 477.84-9.57 479.17-8.39 480.5-7.2 482.42-6.51 484.34-5.81 486.78-5.81L486.78-5.81Q489.22-5.81 491.14-6.51 493.05-7.2 494.38-8.39 495.71-9.57 496.41-11.12 497.11-12.67 497.11-14.4L497.11-14.4Q497.11-16.14 496.41-17.7 495.71-19.26 494.38-20.45 493.05-21.63 491.14-22.33 489.22-23.02 486.78-23.02L486.78-23.02Q484.34-23.02 482.42-22.33 480.5-21.63 479.17-20.45 477.84-19.26 477.15-17.7 476.45-16.14 476.45-14.4Z" opacity="1" transform="matrix(1,0,0,1,0,0)" fill="#000000" class="wordmark-text-0" data-fill-palette-color="primary" id="text-0"></path></svg></g></svg></g></svg></g></svg></g></svg></g></svg></g></svg></g><g><path d="M0 123.6c0-68.262 55.338-123.6 123.6-123.6 64.051 0 116.722 48.72 122.978 111.123l-0.915 0c-6.252-61.899-58.515-110.212-122.063-110.213-67.76 0-122.69 54.93-122.69 122.69 0 67.76 54.93 122.69 122.69 122.69 63.548 0 115.811-48.313 122.063-110.213h0.915c-6.256 62.403-58.927 111.123-122.978 111.123-68.262 0-123.6-55.338-123.6-123.6z" fill="#000000" stroke="transparent" data-fill-palette-color="tertiary"></path></g></svg></g><defs></defs></svg><rect width="395.52" height="247.2" fill="none" stroke="none" visibility="hidden"></rect></g></svg></g></svg>